<svg width="200" height="200" viewBox="0 0 200 200" fill="none" xmlns="http://www.w3.org/2000/svg">
<mask id="mask0_12_34" style="mask-type:luminance" maskUnits="userSpaceOnUse" x="56" y="22" width="83" height="82">
<path d="M56.2229 22.0792H138.121V103.979H56.2229V22.0792Z" fill="white"/>
</mask>
<g mask="url(#mask0_12_34)">
<path d="M131.256 62.525C130.962 44.1917 116.106 29.3375 97.775 29.0437V22.0792H96.6667V29.0437C78.3354 29.3375 63.4792 44.1917 63.1854 62.525H56.2229V63.6333H63.1854C63.4792 81.9646 78.3354 96.8187 96.6667 97.1146V104.077H97.775V97.1146C116.106 96.8187 130.962 81.9646 131.256 63.6333H138.221V62.525H131.256ZM97.775 96.0062V86.9542H96.6667V96.0062C78.9458 95.7125 64.5875 81.3542 64.2937 63.6333H72.7812V62.525H64.2937C64.5875 44.8042 78.9458 30.4437 96.6667 30.15V38.6875H97.775V30.15C115.496 30.4437 129.854 44.8042 130.148 62.525H121.66V63.6333H130.148C129.854 81.3542 115.496 95.7125 97.775 96.0062ZM112.669 62.525H111.562C111.269 54.8667 104.95 48.7229 97.2208 48.7229C89.4917 48.7229 83.1729 54.8667 82.8812 62.525H81.7729C82.0646 54.2542 88.8812 47.6167 97.2208 47.6167C105.562 47.6167 112.377 54.2542 112.669 62.525ZM111.562 63.6333H112.669C112.377 71.9021 105.56 78.5417 97.2208 78.5417C88.8812 78.5417 82.0667 71.9021 81.7729 63.6333H82.8812C83.1729 71.2917 89.4917 77.4333 97.2208 77.4333C104.95 77.4333 111.269 71.2917 111.562 63.6333Z" fill="#7A5CFA"/>
</g>
<mask id="mask1_12_34" style="mask-type:luminance" maskUnits="userSpaceOnUse" x="73" y="38" width="49" height="49">
<path d="M73.0667 38.9333H121.067V86.9333H73.0667V38.9333Z" fill="white"/>
</mask>
<g mask="url(#mask1_12_34)">
<mask id="mask2_12_34" style="mask-type:luminance" maskUnits="userSpaceOnUse" x="70" y="36" width="55" height="54">
<path d="M77.2895 36.2542L124.06 43.15L117.165 89.9188L70.3937 83.0229L77.2895 36.2542Z" fill="white"/>
</mask>
<g mask="url(#mask2_12_34)">
<mask id="mask3_12_34" style="mask-type:luminance" maskUnits="userSpaceOnUse" x="70" y="36" width="55" height="54">
<path d="M77.2895 36.2542L124.06 43.15L117.165 89.9188L70.3937 83.0229L77.2895 36.2542Z" fill="white"/>
</mask>
<g mask="url(#mask3_12_34)">
<path d="M100.348 41.8604C88.65 40.1354 77.7291 48.25 76.0041 59.95C74.2791 71.65 82.3937 82.5687 94.0916 84.2937C105.792 86.0187 116.712 77.9062 118.437 66.2062C120.162 54.5062 112.048 43.5854 100.348 41.8604ZM93.775 86.45C80.8875 84.55 71.9479 72.5187 73.8479 59.6312C75.7479 46.7437 87.7791 37.8042 100.667 39.7042C113.554 41.6042 122.494 53.6354 120.594 66.5229C118.694 79.4104 106.662 88.35 93.775 86.45Z" fill="#7A5CFA"/>
</g>
</g>
</g>
<mask id="mask4_12_34" style="mask-type:luminance" maskUnits="userSpaceOnUse" x="89" y="52" width="17" height="22">
<path d="M89.0667 52.8H105.6V73.6H89.0667V52.8Z" fill="white"/>
</mask>
<g mask="url(#mask4_12_34)">
<mask id="mask5_12_34" style="mask-type:luminance" maskUnits="userSpaceOnUse" x="70" y="36" width="55" height="54">
<path d="M77.2895 36.2542L124.06 43.15L117.165 89.9188L70.3937 83.0229L77.2895 36.2542Z" fill="white"/>
</mask>
<g mask="url(#mask5_12_34)">
<mask id="mask6_12_34" style="mask-type:luminance" maskUnits="userSpaceOnUse" x="70" y="36" width="55" height="54">
<path d="M77.2895 36.2542L124.06 43.15L117.165 89.9188L70.3937 83.0229L77.2895 36.2542Z" fill="white"/>
</mask>
<g mask="url(#mask6_12_34)">
<path d="M97.5978 73.0437L93.9832 72.5104C91.0124 72.0729 88.9499 69.2979 89.3874 66.3271C89.4749 65.7312 90.0291 65.3208 90.6249 65.4083C91.2207 65.4958 91.6311 66.0479 91.5436 66.6458C91.2811 68.4292 92.5186 70.0917 94.302 70.3542L97.9145 70.8875C99.6978 71.15 101.364 69.9146 101.627 68.1333C101.889 66.35 100.652 64.6833 98.8686 64.4208L95.2541 63.8875C92.2853 63.45 90.2207 60.675 90.6582 57.7042C91.0978 54.7354 93.8728 52.6708 96.8436 53.1104L100.458 53.6417C103.429 54.0812 105.492 56.8562 105.054 59.8271C104.967 60.425 104.412 60.8354 103.817 60.7479C103.221 60.6604 102.81 60.1062 102.898 59.5104C103.16 57.7271 101.923 56.0625 100.139 55.8L96.5249 55.2667C94.7436 55.0042 93.077 56.2396 92.8145 58.0229C92.552 59.8062 93.7895 61.4687 95.5728 61.7312L99.1874 62.2646C102.158 62.7021 104.221 65.4792 103.783 68.45C103.344 71.4208 100.569 73.4812 97.5978 73.0437Z" fill="#7A5CFA"/>
</g>
</g>
</g>
<mask id="mask7_12_34" style="mask-type:luminance" maskUnits="userSpaceOnUse" x="97" y="49" width="4" height="7">
<path d="M97.0667 49.0667H100.267V56H97.0667V49.0667Z" fill="white"/>
</mask>
<g mask="url(#mask7_12_34)">
<mask id="mask8_12_34" style="mask-type:luminance" maskUnits="userSpaceOnUse" x="70" y="36" width="55" height="54">
<path d="M77.2895 36.2542L124.06 43.15L117.165 89.9188L70.3937 83.0229L77.2895 36.2542Z" fill="white"/>
</mask>
<g mask="url(#mask8_12_34)">
<mask id="mask9_12_34" style="mask-type:luminance" maskUnits="userSpaceOnUse" x="70" y="36" width="55" height="54">
<path d="M77.2895 36.2542L124.06 43.15L117.165 89.9188L70.3937 83.0229L77.2895 36.2542Z" fill="white"/>
</mask>
<g mask="url(#mask9_12_34)">
<path d="M98.3332 55.5333C97.7353 55.4458 97.3249 54.8917 97.4124 54.2958L97.9999 50.3104C98.0895 49.7146 98.6416 49.3021 99.2395 49.3917C99.8332 49.4792 100.244 50.0312 100.156 50.6292L99.5686 54.6146C99.4811 55.2083 98.927 55.6208 98.3332 55.5333Z" fill="#7A5CFA"/>
</g>
</g>
</g>
<mask id="mask10_12_34" style="mask-type:luminance" maskUnits="userSpaceOnUse" x="93" y="70" width="5" height="7">
<path d="M93.8667 70.4H97.0667V76.8H93.8667V70.4Z" fill="white"/>
</mask>
<g mask="url(#mask10_12_34)">
<mask id="mask11_12_34" style="mask-type:luminance" maskUnits="userSpaceOnUse" x="70" y="36" width="55" height="54">
<path d="M77.2896 36.2542L124.06 43.15L117.165 89.9187L70.3938 83.0229L77.2896 36.2542Z" fill="white"/>
</mask>
<g mask="url(#mask11_12_34)">
<mask id="mask12_12_34" style="mask-type:luminance" maskUnits="userSpaceOnUse" x="70" y="36" width="55" height="54">
<path d="M77.2896 36.2542L124.06 43.15L117.165 89.9187L70.3938 83.0229L77.2896 36.2542Z" fill="white"/>
</mask>
<g mask="url(#mask12_12_34)">
<path d="M95.2021 76.7646C94.6063 76.6771 94.1959 76.1229 94.2834 75.5271L94.8709 71.5417C94.9584 70.9437 95.5104 70.5333 96.1084 70.6208C96.7042 70.7083 97.1146 71.2625 97.0271 71.8583L96.4396 75.8437C96.35 76.4417 95.7979 76.8521 95.2021 76.7646Z" fill="#7A5CFA"/>
</g>
</g>
</g>
<path d="M46.3292 136.555H37.6876L35.9042 142.913H33.3542L41.3459 115.63H42.6376L50.6626 142.913H48.1376L46.3292 136.555ZM38.3542 134.221H45.6792L42.0876 121.638L42.0126 120.63L41.9292 121.638L38.3542 134.221Z" fill="white"/>
<path d="M54.163 142.913V115.63H56.5046V142.913H54.163Z" fill="white"/>
<path d="M68.0774 142.913H66.9107L60.0107 123.43H62.3441L67.4274 138.196L67.5024 139.205L67.5774 138.196L72.6441 123.43H74.9857L68.0774 142.913Z" fill="white"/>
<path d="M90.7209 137.563C90.7209 138.352 90.5709 139.096 90.2709 139.796C89.9709 140.492 89.5584 141.1 89.0376 141.621C88.5209 142.138 87.9126 142.546 87.2126 142.846C86.5167 143.146 85.7751 143.296 84.9876 143.296H83.4292C82.6459 143.296 81.9042 143.146 81.2042 142.846C80.5042 142.546 79.8917 142.138 79.3709 141.621C78.8542 141.1 78.4459 140.492 78.1459 139.796C77.8501 139.096 77.7042 138.352 77.7042 137.563V128.78C77.7042 127.992 77.8501 127.25 78.1459 126.555C78.4459 125.855 78.8542 125.246 79.3709 124.73C79.8917 124.209 80.5042 123.796 81.2042 123.496C81.9042 123.196 82.6459 123.046 83.4292 123.046H84.9876C85.7751 123.046 86.5167 123.196 87.2126 123.496C87.9126 123.796 88.5209 124.209 89.0376 124.73C89.5584 125.246 89.9709 125.855 90.2709 126.555C90.5709 127.25 90.7209 127.992 90.7209 128.78V137.563ZM88.3792 128.646C88.3792 128.175 88.2896 127.734 88.1126 127.321C87.9334 126.911 87.6917 126.552 87.3876 126.246C87.0813 125.942 86.723 125.7 86.3126 125.521C85.9001 125.344 85.4584 125.255 84.9876 125.255H83.4292C82.9626 125.255 82.5209 125.344 82.1042 125.521C81.6917 125.7 81.3334 125.942 81.0292 126.246C80.7292 126.552 80.4896 126.911 80.3126 127.321C80.1334 127.734 80.0459 128.175 80.0459 128.646V137.696C80.0459 138.169 80.1334 138.611 80.3126 139.021C80.4896 139.434 80.7292 139.792 81.0292 140.096C81.3334 140.402 81.6917 140.644 82.1042 140.821C82.5209 141 82.9626 141.088 83.4292 141.088H84.9876C85.4584 141.088 85.9001 141 86.3126 140.821C86.723 140.644 87.0813 140.402 87.3876 140.096C87.6917 139.792 87.9334 139.434 88.1126 139.021C88.2896 138.611 88.3792 138.169 88.3792 137.696V128.646Z" fill="white"/>
<path d="M111.133 136.596C111.133 137.525 110.958 138.394 110.608 139.205C110.258 140.017 109.776 140.727 109.166 141.338C108.56 141.944 107.851 142.421 107.041 142.771C106.228 143.121 105.36 143.296 104.433 143.296H102.491C101.568 143.296 100.695 143.121 99.8742 142.771C99.0575 142.421 98.3429 141.944 97.7325 141.338C97.1263 140.727 96.6492 140.017 96.2992 139.205C95.9492 138.394 95.7742 137.525 95.7742 136.596V121.946C95.7742 121.019 95.9492 120.15 96.2992 119.338C96.6492 118.527 97.1263 117.819 97.7325 117.213C98.3429 116.602 99.0575 116.121 99.8742 115.771C100.695 115.421 101.568 115.246 102.491 115.246H104.433C105.36 115.246 106.228 115.421 107.041 115.771C107.851 116.121 108.56 116.602 109.166 117.213C109.776 117.819 110.258 118.527 110.608 119.338C110.958 120.15 111.133 121.019 111.133 121.946V123.046L108.683 123.43V121.946C108.683 121.336 108.566 120.769 108.333 120.246C108.103 119.719 107.793 119.259 107.399 118.863C107.01 118.469 106.551 118.159 106.024 117.93C105.495 117.702 104.928 117.588 104.324 117.588H102.608C102.001 117.588 101.435 117.702 100.908 117.93C100.378 118.159 99.9158 118.469 99.5158 118.863C99.1158 119.259 98.8013 119.719 98.5742 120.246C98.345 120.769 98.2325 121.336 98.2325 121.946V136.596C98.2325 137.209 98.345 137.777 98.5742 138.305C98.8013 138.827 99.1158 139.288 99.5158 139.688C99.9158 140.088 100.378 140.402 100.908 140.63C101.435 140.859 102.001 140.971 102.608 140.971H104.324C104.928 140.971 105.495 140.859 106.024 140.63C106.551 140.402 107.01 140.088 107.399 139.688C107.793 139.288 108.103 138.827 108.333 138.305C108.566 137.777 108.683 137.209 108.683 136.596V135.113L111.133 135.513V136.596Z" fill="white"/>
<path d="M128.832 137.563C128.832 138.352 128.682 139.096 128.382 139.796C128.082 140.492 127.669 141.1 127.148 141.621C126.632 142.138 126.023 142.546 125.323 142.846C124.627 143.146 123.886 143.296 123.098 143.296H121.54C120.757 143.296 120.015 143.146 119.315 142.846C118.615 142.546 118.002 142.138 117.482 141.621C116.965 141.1 116.557 140.492 116.257 139.796C115.961 139.096 115.815 138.352 115.815 137.563V128.78C115.815 127.992 115.961 127.25 116.257 126.555C116.557 125.855 116.965 125.246 117.482 124.73C118.002 124.209 118.615 123.796 119.315 123.496C120.015 123.196 120.757 123.046 121.54 123.046H123.098C123.886 123.046 124.627 123.196 125.323 123.496C126.023 123.796 126.632 124.209 127.148 124.73C127.669 125.246 128.082 125.855 128.382 126.555C128.682 127.25 128.832 127.992 128.832 128.78V137.563ZM126.49 128.646C126.49 128.175 126.4 127.734 126.223 127.321C126.044 126.911 125.802 126.552 125.498 126.246C125.192 125.942 124.834 125.7 124.423 125.521C124.011 125.344 123.569 125.255 123.098 125.255H121.54C121.073 125.255 120.632 125.344 120.215 125.521C119.802 125.7 119.444 125.942 119.14 126.246C118.84 126.552 118.6 126.911 118.423 127.321C118.244 127.734 118.157 128.175 118.157 128.646V137.696C118.157 138.169 118.244 138.611 118.423 139.021C118.6 139.434 118.84 139.792 119.14 140.096C119.444 140.402 119.802 140.644 120.215 140.821C120.632 141 121.073 141.088 121.54 141.088H123.098C123.569 141.088 124.011 141 124.423 140.821C124.834 140.644 125.192 140.402 125.498 140.096C125.802 139.792 126.044 139.434 126.223 139.021C126.4 138.611 126.49 138.169 126.49 137.696V128.646Z" fill="white"/>
<path d="M134.102 118.746V115.63H136.818V118.746H134.102ZM134.285 142.913V123.43H136.627V142.913H134.285Z" fill="white"/>
<path d="M152.766 142.913V128.646C152.766 128.175 152.676 127.734 152.499 127.321C152.32 126.911 152.078 126.552 151.774 126.246C151.468 125.942 151.11 125.7 150.699 125.521C150.287 125.344 149.845 125.255 149.374 125.255H147.816C147.349 125.255 146.908 125.344 146.491 125.521C146.078 125.7 145.72 125.942 145.416 126.246C145.116 126.552 144.876 126.911 144.699 127.321C144.52 127.734 144.433 128.175 144.433 128.646V142.913H142.091V123.43H142.866L144.141 125.405C144.674 124.684 145.343 124.111 146.149 123.688C146.953 123.261 147.835 123.046 148.791 123.046H149.374C150.162 123.046 150.903 123.196 151.599 123.496C152.299 123.796 152.908 124.209 153.424 124.73C153.945 125.246 154.358 125.855 154.658 126.555C154.958 127.25 155.108 127.992 155.108 128.78V142.913H152.766Z" fill="white"/>
</svg>
